<svg class="marks" width="858" height="614" viewBox="0 0 858 614" version="1.1" xmlns="http://www.w3.org/2000/svg" xmlns:xlink="http://www.w3.org/1999/xlink"><rect width="858" height="614" style="fill: white;"></rect><g transform="translate(53,35)"><g class="mark-group role-frame root"><g transform="translate(0,0)"><path class="background" d="M0.5,0.5h800v400h-800Z" style="fill: none; stroke: #ddd;"></path><g><g class="mark-group role-axis"><g transform="translate(0.5,0.5)"><path class="background" d="M0,0h0v0h0Z" style="pointer-events: none; fill: none;"></path><g><g class="mark-rule role-axis-grid" style="pointer-events: none;"><line transform="translate(0,400)" x2="800" y2="0" style="fill: none; stroke: #ddd; stroke-width: 1; opacity: 1;"></line><line transform="translate(0,360)" x2="800" y2="0" style="fill: none; stroke: #ddd; stroke-width: 1; opacity: 1;"></line><line transform="translate(0,320)" x2="800" y2="0" style="fill: none; stroke: #ddd; stroke-width: 1; opacity: 1;"></line><line transform="translate(0,280)" x2="800" y2="0" style="fill: none; stroke: #ddd; stroke-width: 1; opacity: 1;"></line><line transform="translate(0,240)" x2="800" y2="0" style="fill: none; stroke: #ddd; stroke-width: 1; opacity: 1;"></line><line transform="translate(0,200)" x2="800" y2="0" style="fill: none; stroke: #ddd; stroke-width: 1; opacity: 1;"></line><line transform="translate(0,160)" x2="800" y2="0" style="fill: none; stroke: #ddd; stroke-width: 1; opacity: 1;"></line><line transform="translate(0,120)" x2="800" y2="0" style="fill: none; stroke: #ddd; stroke-width: 1; opacity: 1;"></line><line transform="translate(0,80)" x2="800" y2="0" style="fill: none; stroke: #ddd; stroke-width: 1; opacity: 1;"></line><line transform="translate(0,40)" x2="800" y2="0" style="fill: none; stroke: #ddd; stroke-width: 1; opacity: 1;"></line><line transform="translate(0,0)" x2="800" y2="0" style="fill: none; stroke: #ddd; stroke-width: 1; opacity: 1;"></line></g></g></g></g><g class="mark-rect role-mark marks"><path d="M4,32.80000000000001h72v367.2h-72Z" style="fill: #440154;"></path><path d="M84,44.799999999999955h72v355.20000000000005h-72Z" style="fill: #482878;"></path><path d="M164,96.80000000000001h72v303.2h-72Z" style="fill: #20a486;"></path><path d="M244,102.39999999999998h72v297.6h-72Z" style="fill: #2ab07f;"></path><path d="M324,112h72v288h-72Z" style="fill: #4ec36b;"></path><path d="M404,113.60000000000002h72v286.4h-72Z" style="fill: #56c667;"></path><path d="M484,116h72v284h-72Z" style="fill: #63cb5f;"></path><path d="M564,121.60000000000002h72v278.4h-72Z" style="fill: #81d34d;"></path><path d="M644,136.00000000000006h72v263.99999999999994h-72Z" style="fill: #dae319;"></path><path d="M724,142.39999999999998h72v257.6h-72Z" style="fill: #fde725;"></path></g><g class="mark-text role-title" style="pointer-events: none;"><text text-anchor="middle" transform="translate(376,-15)" style="font-family: sans-serif; font-size: 18px; font-weight: bold; fill: #000; opacity: 1;">Top 10 Recs based on purchase of Sourdough Bread</text></g><g class="mark-group role-axis"><g transform="translate(0.5,400.5)"><path class="background" d="M0,0h0v0h0Z" style="pointer-events: none; fill: none;"></path><g><g class="mark-rule role-axis-tick" style="pointer-events: none;"><line transform="translate(39,0)" x2="0" y2="5" style="fill: none; stroke: #888; stroke-width: 1; opacity: 1;"></line><line transform="translate(119,0)" x2="0" y2="5" style="fill: none; stroke: #888; stroke-width: 1; opacity: 1;"></line><line transform="translate(199,0)" x2="0" y2="5" style="fill: none; stroke: #888; stroke-width: 1; opacity: 1;"></line><line transform="translate(279,0)" x2="0" y2="5" style="fill: none; stroke: #888; stroke-width: 1; opacity: 1;"></line><line transform="translate(359,0)" x2="0" y2="5" style="fill: none; stroke: #888; stroke-width: 1; opacity: 1;"></line><line transform="translate(439,0)" x2="0" y2="5" style="fill: none; stroke: #888; stroke-width: 1; opacity: 1;"></line><line transform="translate(519,0)" x2="0" y2="5" style="fill: none; stroke: #888; stroke-width: 1; opacity: 1;"></line><line transform="translate(599,0)" x2="0" y2="5" style="fill: none; stroke: #888; stroke-width: 1; opacity: 1;"></line><line transform="translate(679,0)" x2="0" y2="5" style="fill: none; stroke: #888; stroke-width: 1; opacity: 1;"></line><line transform="translate(759,0)" x2="0" y2="5" style="fill: none; stroke: #888; stroke-width: 1; opacity: 1;"></line></g><g class="mark-text role-axis-label" style="pointer-events: none;"><text text-anchor="end" transform="translate(39,7) rotate(270) translate(0,4)" style="font-family: sans-serif; font-size: 12px; fill: #000; opacity: 1;">Salted Butter</text><text text-anchor="end" transform="translate(119,7) rotate(270) translate(0,4)" style="font-family: sans-serif; font-size: 12px; fill: #000; opacity: 1;">Sea Salt Pita Chips</text><text text-anchor="end" transform="translate(199,7) rotate(270) translate(0,4)" style="font-family: sans-serif; font-size: 12px; fill: #000; opacity: 1;">Organic Creamy Peanut Butter</text><text text-anchor="end" transform="translate(279,7) rotate(270) translate(0,4)" style="font-family: sans-serif; font-size: 12px; fill: #000; opacity: 1;">Organic Sour Cream</text><text text-anchor="end" transform="translate(359,7) rotate(270) translate(0,4)" style="font-family: sans-serif; font-size: 12px; fill: #000; opacity: 1;">Uncured Genoa Salami</text><text text-anchor="end" transform="translate(439,7) rotate(270) translate(0,4)" style="font-family: sans-serif; font-size: 12px; fill: #000; opacity: 1;">Whipped Cream Cheese</text><text text-anchor="end" transform="translate(519,7) rotate(270) translate(0,4)" style="font-family: sans-serif; font-size: 12px; fill: #000; opacity: 1;">Sharp Cheddar Cheese</text><text text-anchor="end" transform="translate(599,7) rotate(270) translate(0,4)" style="font-family: sans-serif; font-size: 12px; fill: #000; opacity: 1;">Organic Reduced Fat Milk</text><text text-anchor="end" transform="translate(679,7) rotate(270) translate(0,4)" style="font-family: sans-serif; font-size: 12px; fill: #000; opacity: 1;">Unsalted Butter</text><text text-anchor="end" transform="translate(759,7) rotate(270) translate(0,4)" style="font-family: sans-serif; font-size: 12px; fill: #000; opacity: 1;">Shredded Parmesan</text></g><g class="mark-rule role-axis-domain" style="pointer-events: none;"><line transform="translate(0,0)" x2="800" y2="0" style="fill: none; stroke: #888; stroke-width: 1; opacity: 1;"></line></g></g></g></g><g class="mark-group role-axis"><g transform="translate(0.5,0.5)"><path class="background" d="M0,0h0v0h0Z" style="pointer-events: none; fill: none;"></path><g><g class="mark-rule role-axis-tick" style="pointer-events: none;"><line transform="translate(0,400)" x2="-5" y2="0" style="fill: none; stroke: #888; stroke-width: 1; opacity: 1;"></line><line transform="translate(0,360)" x2="-5" y2="0" style="fill: none; stroke: #888; stroke-width: 1; opacity: 1;"></line><line transform="translate(0,320)" x2="-5" y2="0" style="fill: none; stroke: #888; stroke-width: 1; opacity: 1;"></line><line transform="translate(0,280)" x2="-5" y2="0" style="fill: none; stroke: #888; stroke-width: 1; opacity: 1;"></line><line transform="translate(0,240)" x2="-5" y2="0" style="fill: none; stroke: #888; stroke-width: 1; opacity: 1;"></line><line transform="translate(0,200)" x2="-5" y2="0" style="fill: none; stroke: #888; stroke-width: 1; opacity: 1;"></line><line transform="translate(0,160)" x2="-5" y2="0" style="fill: none; stroke: #888; stroke-width: 1; opacity: 1;"></line><line transform="translate(0,120)" x2="-5" y2="0" style="fill: none; stroke: #888; stroke-width: 1; opacity: 1;"></line><line transform="translate(0,80)" x2="-5" y2="0" style="fill: none; stroke: #888; stroke-width: 1; opacity: 1;"></line><line transform="translate(0,40)" x2="-5" y2="0" style="fill: none; stroke: #888; stroke-width: 1; opacity: 1;"></line><line transform="translate(0,0)" x2="-5" y2="0" style="fill: none; stroke: #888; stroke-width: 1; opacity: 1;"></line></g><g class="mark-text role-axis-label" style="pointer-events: none;"><text text-anchor="end" transform="translate(-7,404)" style="font-family: sans-serif; font-size: 12px; fill: #000; opacity: 1;">0.0</text><text text-anchor="end" transform="translate(-7,364)" style="font-family: sans-serif; font-size: 12px; fill: #000; opacity: 1;">0.5</text><text text-anchor="end" transform="translate(-7,324)" style="font-family: sans-serif; font-size: 12px; fill: #000; opacity: 1;">1.0</text><text text-anchor="end" transform="translate(-7,284)" style="font-family: sans-serif; font-size: 12px; fill: #000; opacity: 1;">1.5</text><text text-anchor="end" transform="translate(-7,244)" style="font-family: sans-serif; font-size: 12px; fill: #000; opacity: 1;">2.0</text><text text-anchor="end" transform="translate(-7,204)" style="font-family: sans-serif; font-size: 12px; fill: #000; opacity: 1;">2.5</text><text text-anchor="end" transform="translate(-7,164)" style="font-family: sans-serif; font-size: 12px; fill: #000; opacity: 1;">3.0</text><text text-anchor="end" transform="translate(-7,124)" style="font-family: sans-serif; font-size: 12px; fill: #000; opacity: 1;">3.5</text><text text-anchor="end" transform="translate(-7,84)" style="font-family: sans-serif; font-size: 12px; fill: #000; opacity: 1;">4.0</text><text text-anchor="end" transform="translate(-7,44)" style="font-family: sans-serif; font-size: 12px; fill: #000; opacity: 1;">4.5</text><text text-anchor="end" transform="translate(-7,4)" style="font-family: sans-serif; font-size: 12px; fill: #000; opacity: 1;">5.0</text></g><g class="mark-rule role-axis-domain" style="pointer-events: none;"><line transform="translate(0,400)" x2="0" y2="-400" style="fill: none; stroke: #888; stroke-width: 1; opacity: 1;"></line></g><g class="mark-text role-axis-title" style="pointer-events: none;"><text text-anchor="middle" transform="translate(-34,200) rotate(-90) translate(0,-3)" style="font-family: sans-serif; font-size: 12px; font-weight: bold; fill: #000; opacity: 1;">Purchased X Times More then Average</text></g></g></g></g></g></g></g></g></svg>