<svg class="marks" width="858" height="627" viewBox="0 0 858 627" version="1.1" xmlns="http://www.w3.org/2000/svg" xmlns:xlink="http://www.w3.org/1999/xlink"><rect width="858" height="627" style="fill: white;"></rect><g transform="translate(53,35)"><g class="mark-group role-frame root"><g transform="translate(0,0)"><path class="background" d="M0.5,0.5h800v400h-800Z" style="fill: none; stroke: #ddd;"></path><g><g class="mark-group role-axis"><g transform="translate(0.5,0.5)"><path class="background" d="M0,0h0v0h0Z" style="pointer-events: none; fill: none;"></path><g><g class="mark-rule role-axis-grid" style="pointer-events: none;"><line transform="translate(0,400)" x2="800" y2="0" style="fill: none; stroke: #ddd; stroke-width: 1; opacity: 1;"></line><line transform="translate(0,364)" x2="800" y2="0" style="fill: none; stroke: #ddd; stroke-width: 1; opacity: 1;"></line><line transform="translate(0,327)" x2="800" y2="0" style="fill: none; stroke: #ddd; stroke-width: 1; opacity: 1;"></line><line transform="translate(0,291)" x2="800" y2="0" style="fill: none; stroke: #ddd; stroke-width: 1; opacity: 1;"></line><line transform="translate(0,255)" x2="800" y2="0" style="fill: none; stroke: #ddd; stroke-width: 1; opacity: 1;"></line><line transform="translate(0,218)" x2="800" y2="0" style="fill: none; stroke: #ddd; stroke-width: 1; opacity: 1;"></line><line transform="translate(0,182)" x2="800" y2="0" style="fill: none; stroke: #ddd; stroke-width: 1; opacity: 1;"></line><line transform="translate(0,145)" x2="800" y2="0" style="fill: none; stroke: #ddd; stroke-width: 1; opacity: 1;"></line><line transform="translate(0,109)" x2="800" y2="0" style="fill: none; stroke: #ddd; stroke-width: 1; opacity: 1;"></line><line transform="translate(0,73)" x2="800" y2="0" style="fill: none; stroke: #ddd; stroke-width: 1; opacity: 1;"></line><line transform="translate(0,36)" x2="800" y2="0" style="fill: none; stroke: #ddd; stroke-width: 1; opacity: 1;"></line><line transform="translate(0,0)" x2="800" y2="0" style="fill: none; stroke: #ddd; stroke-width: 1; opacity: 1;"></line></g></g></g></g><g class="mark-rect role-mark marks"><path d="M4,17.600000000000023h72v382.4h-72Z" style="fill: #440154;"></path><path d="M84,24.836363636363615h72v375.1636363636364h-72Z" style="fill: #46085c;"></path><path d="M164,108.61818181818182h72v291.3818181818182h-72Z" style="fill: #365d8d;"></path><path d="M244,123.27272727272731h72v276.7272727272727h-72Z" style="fill: #30698e;"></path><path d="M324,128.40000000000003h72v271.59999999999997h-72Z" style="fill: #2e6e8e;"></path><path d="M404,223.8181818181818h72v176.1818181818182h-72Z" style="fill: #34b679;"></path><path d="M484,273.3454545454546h72v126.65454545454543h-72Z" style="fill: #89d548;"></path><path d="M564,273.56363636363636h72v126.43636363636364h-72Z" style="fill: #89d548;"></path><path d="M644,312.1454545454545h72v87.85454545454547h-72Z" style="fill: #dae319;"></path><path d="M724,329.23636363636365h72v70.76363636363635h-72Z" style="fill: #fde725;"></path></g><g class="mark-text role-title" style="pointer-events: none;"><text text-anchor="middle" transform="translate(376,-15)" style="font-family: sans-serif; font-size: 18px; font-weight: bold; fill: #000; opacity: 1;">Top 10 Recs based on purchase of Blackberry Cucumber Sparkling Water</text></g><g class="mark-group role-axis"><g transform="translate(0.5,400.5)"><path class="background" d="M0,0h0v0h0Z" style="pointer-events: none; fill: none;"></path><g><g class="mark-rule role-axis-tick" style="pointer-events: none;"><line transform="translate(39,0)" x2="0" y2="5" style="fill: none; stroke: #888; stroke-width: 1; opacity: 1;"></line><line transform="translate(119,0)" x2="0" y2="5" style="fill: none; stroke: #888; stroke-width: 1; opacity: 1;"></line><line transform="translate(199,0)" x2="0" y2="5" style="fill: none; stroke: #888; stroke-width: 1; opacity: 1;"></line><line transform="translate(279,0)" x2="0" y2="5" style="fill: none; stroke: #888; stroke-width: 1; opacity: 1;"></line><line transform="translate(359,0)" x2="0" y2="5" style="fill: none; stroke: #888; stroke-width: 1; opacity: 1;"></line><line transform="translate(439,0)" x2="0" y2="5" style="fill: none; stroke: #888; stroke-width: 1; opacity: 1;"></line><line transform="translate(519,0)" x2="0" y2="5" style="fill: none; stroke: #888; stroke-width: 1; opacity: 1;"></line><line transform="translate(599,0)" x2="0" y2="5" style="fill: none; stroke: #888; stroke-width: 1; opacity: 1;"></line><line transform="translate(679,0)" x2="0" y2="5" style="fill: none; stroke: #888; stroke-width: 1; opacity: 1;"></line><line transform="translate(759,0)" x2="0" y2="5" style="fill: none; stroke: #888; stroke-width: 1; opacity: 1;"></line></g><g class="mark-text role-axis-label" style="pointer-events: none;"><text text-anchor="end" transform="translate(39,7) rotate(270) translate(0,4)" style="font-family: sans-serif; font-size: 12px; fill: #000; opacity: 1;">Kiwi Sandia Sparkling Water</text><text text-anchor="end" transform="translate(119,7) rotate(270) translate(0,4)" style="font-family: sans-serif; font-size: 12px; fill: #000; opacity: 1;">Curate Melon Pomelo Sparkin…</text><text text-anchor="end" transform="translate(199,7) rotate(270) translate(0,4)" style="font-family: sans-serif; font-size: 12px; fill: #000; opacity: 1;">Pineapple Strawberry Sparklin…</text><text text-anchor="end" transform="translate(279,7) rotate(270) translate(0,4)" style="font-family: sans-serif; font-size: 12px; fill: #000; opacity: 1;">Pineapple Strawberry Naturall…</text><text text-anchor="end" transform="translate(359,7) rotate(270) translate(0,4)" style="font-family: sans-serif; font-size: 12px; fill: #000; opacity: 1;">Curate Pomme Baya-Apple Be…</text><text text-anchor="end" transform="translate(439,7) rotate(270) translate(0,4)" style="font-family: sans-serif; font-size: 12px; fill: #000; opacity: 1;">Curate Cherry Lime Sparkling …</text><text text-anchor="end" transform="translate(519,7) rotate(270) translate(0,4)" style="font-family: sans-serif; font-size: 12px; fill: #000; opacity: 1;">Peach-Pear Sparkling Water</text><text text-anchor="end" transform="translate(599,7) rotate(270) translate(0,4)" style="font-family: sans-serif; font-size: 12px; fill: #000; opacity: 1;">Passionfruit Sparkling Water</text><text text-anchor="end" transform="translate(679,7) rotate(270) translate(0,4)" style="font-family: sans-serif; font-size: 12px; fill: #000; opacity: 1;">Cran-Raspberry Flavored Spar…</text><text text-anchor="end" transform="translate(759,7) rotate(270) translate(0,4)" style="font-family: sans-serif; font-size: 12px; fill: #000; opacity: 1;">Coconut Sparkling Water</text></g><g class="mark-rule role-axis-domain" style="pointer-events: none;"><line transform="translate(0,0)" x2="800" y2="0" style="fill: none; stroke: #888; stroke-width: 1; opacity: 1;"></line></g></g></g></g><g class="mark-group role-axis"><g transform="translate(0.5,0.5)"><path class="background" d="M0,0h0v0h0Z" style="pointer-events: none; fill: none;"></path><g><g class="mark-rule role-axis-tick" style="pointer-events: none;"><line transform="translate(0,400)" x2="-5" y2="0" style="fill: none; stroke: #888; stroke-width: 1; opacity: 1;"></line><line transform="translate(0,364)" x2="-5" y2="0" style="fill: none; stroke: #888; stroke-width: 1; opacity: 1;"></line><line transform="translate(0,327)" x2="-5" y2="0" style="fill: none; stroke: #888; stroke-width: 1; opacity: 1;"></line><line transform="translate(0,291)" x2="-5" y2="0" style="fill: none; stroke: #888; stroke-width: 1; opacity: 1;"></line><line transform="translate(0,255)" x2="-5" y2="0" style="fill: none; stroke: #888; stroke-width: 1; opacity: 1;"></line><line transform="translate(0,218)" x2="-5" y2="0" style="fill: none; stroke: #888; stroke-width: 1; opacity: 1;"></line><line transform="translate(0,182)" x2="-5" y2="0" style="fill: none; stroke: #888; stroke-width: 1; opacity: 1;"></line><line transform="translate(0,145)" x2="-5" y2="0" style="fill: none; stroke: #888; stroke-width: 1; opacity: 1;"></line><line transform="translate(0,109)" x2="-5" y2="0" style="fill: none; stroke: #888; stroke-width: 1; opacity: 1;"></line><line transform="translate(0,73)" x2="-5" y2="0" style="fill: none; stroke: #888; stroke-width: 1; opacity: 1;"></line><line transform="translate(0,36)" x2="-5" y2="0" style="fill: none; stroke: #888; stroke-width: 1; opacity: 1;"></line><line transform="translate(0,0)" x2="-5" y2="0" style="fill: none; stroke: #888; stroke-width: 1; opacity: 1;"></line></g><g class="mark-text role-axis-label" style="pointer-events: none;"><text text-anchor="end" transform="translate(-7,404)" style="font-family: sans-serif; font-size: 12px; fill: #000; opacity: 1;">0</text><text text-anchor="end" transform="translate(-7,367.6363636363636)" style="font-family: sans-serif; font-size: 12px; fill: #000; opacity: 1;">10</text><text text-anchor="end" transform="translate(-7,331.27272727272725)" style="font-family: sans-serif; font-size: 12px; fill: #000; opacity: 1;">20</text><text text-anchor="end" transform="translate(-7,294.90909090909093)" style="font-family: sans-serif; font-size: 12px; fill: #000; opacity: 1;">30</text><text text-anchor="end" transform="translate(-7,258.5454545454545)" style="font-family: sans-serif; font-size: 12px; fill: #000; opacity: 1;">40</text><text text-anchor="end" transform="translate(-7,222.1818181818182)" style="font-family: sans-serif; font-size: 12px; fill: #000; opacity: 1;">50</text><text text-anchor="end" transform="translate(-7,185.81818181818184)" style="font-family: sans-serif; font-size: 12px; fill: #000; opacity: 1;">60</text><text text-anchor="end" transform="translate(-7,149.45454545454547)" style="font-family: sans-serif; font-size: 12px; fill: #000; opacity: 1;">70</text><text text-anchor="end" transform="translate(-7,113.09090909090907)" style="font-family: sans-serif; font-size: 12px; fill: #000; opacity: 1;">80</text><text text-anchor="end" transform="translate(-7,76.72727272727269)" style="font-family: sans-serif; font-size: 12px; fill: #000; opacity: 1;">90</text><text text-anchor="end" transform="translate(-7,40.363636363636374)" style="font-family: sans-serif; font-size: 12px; fill: #000; opacity: 1;">100</text><text text-anchor="end" transform="translate(-7,4)" style="font-family: sans-serif; font-size: 12px; fill: #000; opacity: 1;">110</text></g><g class="mark-rule role-axis-domain" style="pointer-events: none;"><line transform="translate(0,400)" x2="0" y2="-400" style="fill: none; stroke: #888; stroke-width: 1; opacity: 1;"></line></g><g class="mark-text role-axis-title" style="pointer-events: none;"><text text-anchor="middle" transform="translate(-34,200) rotate(-90) translate(0,-3)" style="font-family: sans-serif; font-size: 12px; font-weight: bold; fill: #000; opacity: 1;">Purchased X Times More then Average</text></g></g></g></g></g></g></g></g></svg>